<?xml version="1.0" encoding="utf-8"?>
<!-- Generator: Adobe Illustrator 25.4.1, SVG Export Plug-In . SVG Version: 6.00 Build 0)  -->
<svg version="1.0" id="Layer_1" xmlns="http://www.w3.org/2000/svg" xmlns:xlink="http://www.w3.org/1999/xlink" x="0px" y="0px"
	 viewBox="0 0 852 618" style="enable-background:new 0 0 852 618;" xml:space="preserve">
<style type="text/css">
	.st0{fill:#ED7016;}
	.st1{fill:#636362;}
	.st2{fill:none;}
</style>
<path class="st0" d="M585.2,137.8c-13.9-43.3-60.3-67.2-103.7-53.2c-25.3,8.1-45.1,28-53.3,53.3c-1.8,5.5-2.9,11.2-3.5,16.9
	l-0.3,4.3l-0.1,4.3v8.3l0.1,51.1l0,0v22.4l0,0l0.1,59.9v16.7c0.1,16.3-4.9,32.2-14.4,45.4c-19.5,27.1-54.3,38.6-86.1,28.6
	c-7.7-2.5-15-6.1-21.6-10.8l-0.1-0.1c-1-0.7-2-1.4-2.9-2.2l-0.6-0.5c-0.9-0.7-1.7-1.4-2.5-2.1l-0.9-0.8l-1.6-1.5
	c-0.5-0.5-1.1-1-1.6-1.6c-0.5-0.6-0.8-0.8-1.2-1.3s-0.9-1-1.4-1.5c-0.5-0.5-1-1.1-1.5-1.7l-1-1.2c-0.6-0.7-1.1-1.4-1.7-2.2
	c-0.3-0.4-0.6-0.8-0.8-1.1c-0.5-0.6-0.9-1.3-1.4-2c-0.3-0.5-0.6-1-0.9-1.4c-0.3-0.5-0.8-1.2-1.2-1.9l-0.8-1.4
	c-0.4-0.7-0.8-1.4-1.2-2.1l-0.8-1.6c-0.2-0.3-0.3-0.6-0.5-1c-0.5-1.1-1.1-2.2-1.6-3.4l0,0c-4.1-9.6-6.2-19.9-6.2-30.4
	c0.2-33.6,22-63.2,54-73.3c5.2-1.6,10.5-2.7,15.9-3.2l4-0.3l4.1-0.1h8.3l59.1,0.1v-21.3c-18.9,1.2-40.2,2.5-59.1,3.9l-8.3,0.7
	l-4.8,0.4l-4.8,0.7c-26,4.3-48.6,20-61.6,42.9c-9.2,15.1-14.1,32.4-14,50.1c0,27.4,11.2,51.9,29,68.6c0.5,0.4,0.9,0.9,1.4,1.3
	c0.1,0,0.1,0.1,0.2,0.1c7.7,7.1,16.6,12.8,26.4,16.7c12.1,4.9,25.2,7.2,38.2,6.6c13.4-0.6,26.6-4.1,38.5-10.2
	c12.2-6.2,23-15.1,31.5-25.8c8.8-11,15.1-23.7,18.4-37.3c0.4-1.7,0.8-3.4,1.1-5.2c0.3-1.7,0.6-3.5,0.9-5.2s0.4-3.5,0.6-5.3l0.3-5.2
	c0.3-5.5,0.5-11.1,0.8-16.7l1.4-33.3c0.4-8.8,0.6-17.7,0.9-26.5l0,0l0.8-23.7l0,0c0-0.1,0-0.2,0-0.3c0.5-16.5,0.8-33,1.2-49.5
	l0.2-8.3l0.2-2.8l0.3-2.7c1.4-10.8,6.1-20.9,13.5-28.8c4.9-5.3,10.7-9.5,17.3-12.4c13.2-5.7,28.2-5.7,41.4,0
	c13.2,5.9,23.5,16.9,28.3,30.6c1.2,3.4,2,6.9,2.5,10.5c0.4,3.6,0.5,7.3,0.3,10.9c-0.5,7.3-2.5,14.5-6,21
	c-3.5,6.6-8.4,12.5-14.2,17.2c-6,4.8-12.9,8.2-20.3,10.1l-2.8,0.7l-2.9,0.5l-2.9,0.4l-3,0.2l-16.7,0.7c-7.5,0.4-19.6,0.8-27.1,1.1
	l-0.8,24.5h28h16.7c45.5,0.2,82.5-36.4,82.8-81.9C589.2,154.7,587.9,146.1,585.2,137.8"/>
<path class="st1" d="M205.6,456.2h-27.1V536h17.1v-28.3h10c17.3,0,29.3-9.5,29.3-25.8S222.9,456.2,205.6,456.2 M206,492.6h-10.4v-21
	H206c6.8,0,11.7,3.9,11.7,10.5S212.8,492.6,206,492.6"/>
<path class="st1" d="M266,478.2c-16.6,0-29.2,12.6-29.2,29.6c0,17.4,12.3,29.6,29.8,29.6c12.3,0,21.4-5.7,26.1-14.9l-14-5.6
	c-2.6,4.2-5.9,6.8-12.1,6.8c-7,0-13-4.8-13.6-11.4h41.3c0.2-1.4,0.3-2.7,0.2-4.1C294.7,490.6,283,478.2,266,478.2 M253.2,501.6
	c0.7-5.4,6-10.4,12.6-10.4c6.6,0,11.9,4.3,12.5,10.4H253.2z"/>
<path class="st1" d="M319.2,488.9v-9.2h-16.4V536h16.5v-22.9c0-11,5.5-17.9,14.7-17.9c1.4-0.1,2.9,0.2,4.2,0.7v-17.1
	c-0.9-0.2-1.9-0.3-2.9-0.3C328.3,478.3,321.9,482.5,319.2,488.9"/>
<path class="st1" d="M370.5,501.6l-7.1-1.8c-3.1-0.8-4.7-2.3-4.7-4.3c0-2.3,2.2-3.9,5.2-3.9c3.4,0,7.2,2.7,8.9,7l13.6-7.2
	c-3.5-7.9-12.6-13.1-22.3-13.1c-12.9,0-21.8,7.5-21.8,18.2c0,8.9,5.5,14.8,16.1,17.3l6.6,1.6c3.4,0.8,5.1,2.3,5.1,4.2
	c0,2.7-2.4,4.3-5.9,4.3c-4.2,0-8.4-3-10.5-7.6l-13.4,7.4c3.8,8.7,12.6,13.8,23.8,13.8c13.1,0,22.7-8,22.7-19.2
	C386.8,510.2,381.1,504.3,370.5,501.6"/>
<path class="st1" d="M402.8,453.7c-5.4,0-9.7,4.3-9.7,9.7c0,5.4,4.3,9.7,9.7,9.7c5.4,0,9.7-4.3,9.7-9.7c0,0,0,0,0,0
	C412.5,458.1,408.2,453.8,402.8,453.7"/>
<rect x="394.5" y="479.7" class="st1" width="16.6" height="56.3"/>
<path class="st1" d="M448,501.6l-7-1.8c-3.1-0.8-4.7-2.3-4.7-4.3c0-2.3,2.2-3.9,5.2-3.9c3.4,0,7.2,2.7,8.9,7l13.6-7.2
	c-3.5-7.9-12.6-13.1-22.3-13.1c-12.9,0-21.8,7.5-21.8,18.2c0,8.9,5.5,14.8,16.1,17.3l6.6,1.6c3.4,0.8,5.1,2.3,5.1,4.2
	c0,2.7-2.4,4.3-5.9,4.3c-4.2,0-8.4-3-10.5-7.6l-13.4,7.4c3.8,8.7,12.6,13.8,23.8,13.8c13.1,0,22.7-8,22.7-19.2
	C464.3,510.2,458.6,504.3,448,501.6"/>
<path class="st1" d="M492,463.2h-16.5v16.5h-8v13.7h8v24.1c0,12.5,7.3,19.8,19.1,19.8c5.4,0,9.1-1,11.6-2.3v-14.4
	c-1.9,1.1-4,1.7-6.1,1.7c-5.5,0-8.1-2.4-8.1-8.4v-20.6h14.2v-13.7H492V463.2z"/>
<path class="st1" d="M539,478.2c-16.6,0-29.2,12.6-29.2,29.6c0,17.4,12.3,29.6,29.8,29.6c12.3,0,21.4-5.7,26.1-14.9l-14-5.6
	c-2.6,4.2-5.9,6.8-12.1,6.8c-7,0-13-4.8-13.5-11.4h41.4c0.2-1.4,0.2-2.7,0.2-4.1C567.8,490.6,556,478.2,539,478.2 M526.3,501.6
	c0.7-5.4,6-10.4,12.6-10.4s11.9,4.3,12.5,10.4H526.3z"/>
<path class="st1" d="M609.1,478.2c-7.5,0-13.2,3.2-16.6,8.7v-7.2h-16.6V536h16.6v-29.9c0-7.9,4.2-12.6,10.6-12.6s10.1,4.2,10.1,11.6
	V536h16.6v-34.8C629.8,487,622,478.2,609.1,478.2"/>
<path class="st1" d="M673.5,493.4v-13.7h-14.2v-16.5h-16.5v16.5h-8v13.7h8v24.1c0,12.5,7.3,19.8,19.1,19.8c5.4,0,9.1-1,11.6-2.3
	v-14.4c-1.9,1.1-4,1.7-6.2,1.7c-5.5,0-8.1-2.4-8.1-8.4v-20.6H673.5z"/>
<rect id="SVGID" x="176" y="59" class="st2" width="500" height="500"/>
</svg>
